<svg width="17" height="18" viewBox="0 0 17 18" fill="none" xmlns="http://www.w3.org/2000/svg">
<path fill-rule="evenodd" clip-rule="evenodd" d="M11.9974 17.0001H5.04914C2.49689 17.0001 0.538888 16.0783 1.09505 12.368L1.74264 7.33966C2.08548 5.48832 3.26638 4.77979 4.30252 4.77979H12.7745C13.8259 4.77979 14.9382 5.54165 15.3344 7.33966L15.9819 12.368C16.4543 15.6593 14.5497 17.0001 11.9974 17.0001Z" stroke="white" stroke-width="1.5" stroke-linecap="round" stroke-linejoin="round"/>
<path d="M12.1118 4.59605C12.1118 2.61003 10.5018 1.00003 8.51578 1.00003C7.55942 0.995987 6.64085 1.37306 5.96317 2.04788C5.2855 2.7227 4.90453 3.63968 4.90454 4.59605" stroke="white" stroke-width="1.5" stroke-linecap="round" stroke-linejoin="round"/>
<path d="M10.9841 8.34473H10.946" stroke="white" stroke-width="1.5" stroke-linecap="round" stroke-linejoin="round"/>
<path d="M6.13111 8.34473H6.09302" stroke="white" stroke-width="1.5" stroke-linecap="round" stroke-linejoin="round"/>
</svg>
