<svg width="18" height="16" viewBox="0 0 18 16" fill="none" xmlns="http://www.w3.org/2000/svg">
<path opacity="0.4" d="M7.27499 11.6614H1.357C0.607997 11.6614 0 12.2587 0 12.9946C0 13.7294 0.607997 14.3277 1.357 14.3277H7.27499C8.02397 14.3277 8.63201 13.7294 8.63201 12.9946C8.63201 12.2587 8.02397 11.6614 7.27499 11.6614Z" fill="white"/>
<path opacity="0.4" d="M18.0002 3.04072C18.0002 2.30584 17.3921 1.7085 16.6441 1.7085H10.7262C9.97718 1.7085 9.36914 2.30584 9.36914 3.04072C9.36914 3.77658 9.97718 4.37392 10.7262 4.37392H16.6441C17.3921 4.37392 18.0002 3.77658 18.0002 3.04072Z" fill="white"/>
<path d="M6.18998 3.04071C6.18998 4.72072 4.80499 6.08241 3.09499 6.08241C1.38599 6.08241 0 4.72072 0 3.04071C0 1.36169 1.38599 0 3.09499 0C4.80499 0 6.18998 1.36169 6.18998 3.04071Z" fill="white"/>
<path d="M18.0001 12.9594C18.0001 14.6384 16.6151 16.0001 14.9051 16.0001C13.1961 16.0001 11.8101 14.6384 11.8101 12.9594C11.8101 11.2793 13.1961 9.91772 14.9051 9.91772C16.6151 9.91772 18.0001 11.2793 18.0001 12.9594Z" fill="white"/>
</svg>
